# xmcd CD database file
#
# Track frame offsets:
#	183
#	23638
#	51040
#	67683
#	83423
#	105025
#	123780
#	150538
#	174540
#	193820
#	227135
#	247478
#	271373
#
# Disc length: 3801 seconds
#
# Revision: 0
# Processed by: cddbd v1.5PL3 Copyright (c) Steve Scherf et al.
# Submitted via: CDex 1.50beta10
#
DISCID=9a0ed70d
DTITLE=Bill Evans Trio - Live in Stockholm 1965
DYEAR=1965
DGENRE=Jazz
TTITLE0=You and the music and the music
TTITLE1=Round about midnight
TTITLE2=Funkallero
TTITLE3=What is this thing called love ?
TTITLE4=Very early
TTITLE5=Our love is here to stay
TTITLE6=All of you
TTITLE7=Elsa
TTITLE8=Nardis
TTITLE9=Round about midnight
TTITLE10=I should care
TTITLE11=Time remembered
TTITLE12=All of you
EXTD=YEAR: 1965
EXTT0=
EXTT1=
EXTT2=
EXTT3=
EXTT4=
EXTT5=
EXTT6=
EXTT7=
EXTT8=
EXTT9=
EXTT10=
EXTT11=
EXTT12=
PLAYORDER=
